<?xml version="1.0" standalone="no"?><!DOCTYPE svg PUBLIC "-//W3C//DTD SVG 1.1//EN" "http://www.w3.org/Graphics/SVG/1.1/DTD/svg11.dtd"><svg t="1567396076421" class="icon" viewBox="0 0 1024 1024" version="1.1" xmlns="http://www.w3.org/2000/svg" p-id="2247" xmlns:xlink="http://www.w3.org/1999/xlink" width="256" height="256"><defs><style type="text/css">@font-face { font-family: rbicon; src: url("chrome-extension://dipiagiiohfljcicegpgffpbnjmgjcnf/fonts/rbicon.woff2") format("woff2"); font-weight: normal; font-style: normal; }
</style></defs><path d="M512 726.817391c-117.982609 0-214.817391-95.721739-214.817391-214.817391 0-117.982609 95.721739-214.817391 214.817391-214.817391 117.982609 0 214.817391 95.721739 214.817391 214.817391 0 117.982609-96.834783 214.817391-214.817391 214.817391z m0-350.608695c-74.573913 0-135.791304 61.217391-135.791304 135.791304 0 74.573913 61.217391 135.791304 135.791304 135.791304 74.573913 0 135.791304-61.217391 135.791304-135.791304 0-74.573913-61.217391-135.791304-135.791304-135.791304zM512 1024h-5.565217c-38.956522 0-72.347826-4.452174-74.573913-4.452174-17.808696-2.226087-31.165217-15.582609-34.504348-33.391304l-11.130435-80.139131c-24.486957-7.791304-47.86087-17.808696-70.121739-30.052174L253.773913 923.826087c-14.469565 11.130435-33.391304 10.017391-47.86087 0-1.113043-1.113043-27.826087-22.26087-55.652173-48.973913l-4.452174-4.452174c-27.826087-27.826087-47.86087-54.53913-48.973913-55.652174-11.130435-14.469565-11.130435-33.391304 0-47.860869l48.973913-64.556522c-12.243478-22.26087-21.147826-46.747826-28.939131-71.234783l-77.913043-11.130435c-17.808696-2.226087-31.165217-16.695652-33.391305-34.504347-1.113043-1.113043-5.565217-34.504348-5.565217-73.46087v-5.565217c0-38.956522 4.452174-72.347826 4.452174-74.573913 2.226087-17.808696 15.582609-31.165217 33.391304-34.504348l80.139131-11.130435c7.791304-24.486957 17.808696-47.86087 30.052174-70.121739L100.173913 253.773913c-11.130435-14.469565-10.017391-33.391304 0-47.86087 1.113043-1.113043 22.26087-27.826087 48.973913-55.652173l4.452174-4.452174c27.826087-27.826087 54.53913-47.86087 55.652174-48.973913 14.469565-11.130435 33.391304-11.130435 47.860869 0l64.556522 48.973913c22.26087-12.243478 46.747826-21.147826 71.234783-28.939131l11.130435-77.913043c2.226087-17.808696 16.695652-31.165217 34.504347-33.391305C439.652174 4.452174 473.043478 0 512 0h5.565217c38.956522 0 72.347826 4.452174 74.573913 4.452174 17.808696 2.226087 31.165217 15.582609 34.504348 33.391304l11.130435 80.139131c24.486957 7.791304 47.86087 17.808696 70.121739 30.052174L770.226087 100.173913c14.469565-11.130435 33.391304-10.017391 47.86087 0 1.113043 1.113043 27.826087 22.26087 55.652173 48.973913l4.452174 4.452174c27.826087 27.826087 47.86087 54.53913 48.973913 55.652174 11.130435 14.469565 11.130435 33.391304 0 47.860869L879.304348 321.669565c12.243478 22.26087 21.147826 46.747826 28.93913 71.234783l77.913044 11.130435c17.808696 2.226087 31.165217 16.695652 33.391304 34.504347 0 1.113043 4.452174 35.617391 4.452174 74.573913v5.565218c0 38.956522-4.452174 72.347826-4.452174 74.573913-2.226087 17.808696-15.582609 31.165217-33.391304 34.504348l-80.139131 11.130435c-7.791304 24.486957-17.808696 47.86087-30.052174 70.121739l47.86087 63.443478c11.130435 14.469565 10.017391 33.391304 0 47.860869-1.113043 1.113043-22.26087 27.826087-48.973913 55.652174l-4.452174 4.452174c-27.826087 27.826087-54.53913 47.86087-55.652174 48.973913-14.469565 11.130435-33.391304 11.130435-47.860869 0L702.330435 879.304348c-22.26087 12.243478-46.747826 21.147826-71.234783 28.93913l-11.130435 77.913044c-2.226087 17.808696-16.695652 31.165217-34.504347 33.391304-1.113043 0-34.504348 4.452174-73.46087 4.452174z m-40.069565-80.13913c10.017391 1.113043 22.26087 1.113043 34.504348 1.113043h5.565217c12.243478 0 24.486957 0 34.504348-1.113043l10.017391-73.46087c2.226087-16.695652 14.469565-28.93913 30.052174-33.391304 34.504348-7.791304 67.895652-21.147826 97.947826-40.069566 8.904348-5.565217 20.034783-6.678261 30.052174-4.452173 5.565217 1.113043 11.130435 4.452174 15.582609 7.791304l58.991304 44.521739c7.791304-6.678261 16.695652-14.469565 25.6-23.373913l4.452174-4.452174c8.904348-8.904348 16.695652-17.808696 23.373913-25.6l-44.521739-58.991304c-10.017391-13.356522-10.017391-31.165217-2.226087-44.521739 18.921739-28.93913 32.278261-61.217391 40.069565-94.608696 3.33913-16.695652 16.695652-30.052174 33.391305-32.278261l74.573913-10.017391c1.113043-10.017391 1.113043-22.26087 1.113043-34.504348V512c0-12.243478 0-24.486957-1.113043-34.504348l-73.46087-10.017391c-15.582609-2.226087-28.93913-14.469565-33.391304-30.052174-7.791304-34.504348-21.147826-66.782609-38.956522-96.834783-2.226087-2.226087-3.33913-5.565217-4.452174-8.904347-4.452174-12.243478-2.226087-26.713043 5.565217-36.730435l45.634783-60.104348c-6.678261-7.791304-14.469565-16.695652-23.373913-25.6l-4.452174-4.452174c-8.904348-8.904348-17.808696-16.695652-25.6-23.373913l-58.991304 44.521739c-14.469565 10.017391-33.391304 10.017391-46.747826 0-28.93913-17.808696-61.217391-31.165217-94.608696-40.069565-15.582609-3.33913-27.826087-16.695652-30.052174-33.391304L550.956522 77.913043c-10.017391-1.113043-22.26087-1.113043-34.504348-1.113043H512c-12.243478 0-24.486957 0-34.504348 1.113043l-10.017391 75.686957c-2.226087 17.808696-15.582609 31.165217-33.391304 33.391304-33.391304 7.791304-65.669565 21.147826-94.608696 38.956522-8.904348 5.565217-20.034783 6.678261-30.052174 4.452174-5.565217-1.113043-11.130435-4.452174-15.582609-7.791304l-57.878261-44.521739c-7.791304 6.678261-16.695652 14.469565-25.6 23.373913l-4.452174 4.452173c-8.904348 8.904348-16.695652 17.808696-23.373913 25.6l44.52174 58.991305c10.017391 13.356522 10.017391 30.052174 2.226087 44.521739-1.113043 1.113043-1.113043 2.226087-2.226087 3.33913-17.808696 28.93913-31.165217 61.217391-38.956522 94.608696-3.33913 15.582609-16.695652 27.826087-33.391305 30.052174l-74.573913 10.017391c-1.113043 10.017391-1.113043 22.26087-1.113043 34.504348v4.452174c0 12.243478 0 24.486957 1.113043 34.504348l73.46087 10.017391c17.808696 2.226087 31.165217 15.582609 33.391304 33.391304v1.113044c7.791304 33.391304 21.147826 64.556522 38.956522 93.495652 5.565217 10.017391 7.791304 22.26087 3.339131 33.391304-1.113043 4.452174-4.452174 8.904348-7.791305 13.356522L178.086957 789.147826c6.678261 7.791304 14.469565 16.695652 23.373913 25.6l4.452173 4.452174c8.904348 8.904348 17.808696 16.695652 25.6 23.373913l58.991305-44.521739c14.469565-11.130435 35.617391-10.017391 48.973913 1.113043 28.93913 17.808696 60.104348 30.052174 92.382609 38.956522 15.582609 3.33913 27.826087 16.695652 30.052173 33.391304l10.017392 72.347827z" fill="#7E7E7E" p-id="2248"></path></svg>