<?xml version="1.0" encoding="UTF-8"?>
<svg width="27px" height="26px" viewBox="0 0 27 26" version="1.1" xmlns="http://www.w3.org/2000/svg" xmlns:xlink="http://www.w3.org/1999/xlink">
    <!-- Generator: Sketch 47.1 (45422) - http://www.bohemiancoding.com/sketch -->
    <title>calendar_icon_disable</title>
    <desc>Created with Sketch.</desc>
    <defs></defs>
    <g id="Page-1" stroke="none" stroke-width="1" fill="none" fill-rule="evenodd">
        <g id="calendar_icon_disable" transform="translate(1.056962, 0.000000)">
            <path d="M20.4340012,4.44340296 L22.9836797,4.44340296 C23.5359645,4.44340296 23.9836797,4.89111821 23.9836797,5.44340296 L23.9836797,23.3068072 C23.9836797,23.8590919 23.5359645,24.3068072 22.9836797,24.3068072 L1.80220552,24.3068072 C1.24992077,24.3068072 0.802205516,23.8590919 0.802205516,23.3068072 L0.802205516,5.44340296 C0.802205516,4.89111821 1.24992077,4.44340296 1.80220552,4.44340296 L3.64519435,4.44340296 M7.92987679,4.44340296 L16.2151583,4.44340296" id="Rectangle-3" stroke="#FE5353" stroke-width="2"></path>
            <path d="M3.68426026,4.44340296 L1.80220552,4.44340296 L1.80220552,4.44340296 C1.24992077,4.44340296 0.802205516,4.89111821 0.802205516,5.44340296 L0.802205516,5.44340296 L0.802205516,10.6696698 L23.9836797,10.6696698 L23.9836797,5.44340296 C23.9836797,4.89111821 23.5359645,4.44340296 22.9836797,4.44340296 L22.9836797,4.44340296 L20.4511557,4.44340296 L20.4511557,5.90902948 C20.4511557,7.07337207 19.5072696,8.01725823 18.342927,8.01725823 C17.1785844,8.01725823 16.2346982,7.07337207 16.2346982,5.90902948 L16.2346982,4.44340296 L7.90071778,4.44340296 L7.90071778,5.90902948 C7.90071778,7.07337207 6.95683161,8.01725823 5.79248902,8.01725823 L5.79248902,8.01725823 C4.62814643,8.01725823 3.68426026,7.07337207 3.68426026,5.90902948 L3.68426026,4.44340296 Z" id="Combined-Shape" fill="#FE5353"></path>
            <rect id="Rectangle-5" fill="#FE5353" x="4.67721622" y="14.2479528" width="15.7739395" height="2.90560594"></rect>
            <rect id="Rectangle-6" fill="#FE5353" x="4.67721622" y="0.670776317" width="2.23054561" height="5.72646737" rx="1.1152728"></rect>
            <rect id="Rectangle-6-Copy-3" fill="#FE5353" x="17.2276542" y="0.670776317" width="2.23054561" height="5.72646737" rx="1.1152728"></rect>
        </g>
    </g>
</svg>